<svg width="50" height="50" viewBox="0 0 50 50" fill="none" xmlns="http://www.w3.org/2000/svg">
<path d="M37.9999 25.0428C37.9959 28.22 36.8301 31.2861 34.7223 33.6636C32.6145 36.041 29.7101 37.5656 26.5562 37.9503C26.486 37.9582 26.4149 37.9512 26.3475 37.9296C26.2802 37.9081 26.2182 37.8725 26.1657 37.8253C26.1131 37.778 26.0712 37.7202 26.0426 37.6555C26.014 37.5909 25.9995 37.5209 25.9999 37.4503V28.0428H28.9999C29.137 28.0431 29.2727 28.0152 29.3986 27.9608C29.5244 27.9065 29.6378 27.8268 29.7315 27.7268C29.8253 27.6268 29.8975 27.5086 29.9437 27.3796C29.9899 27.2505 30.009 27.1133 29.9999 26.9765C29.9779 26.7194 29.8592 26.4801 29.6679 26.3069C29.4766 26.1336 29.2268 26.0393 28.9687 26.0428H25.9999V23.0428C25.9999 22.5123 26.2107 22.0036 26.5857 21.6285C26.9608 21.2535 27.4695 21.0428 27.9999 21.0428H29.9999C30.137 21.0431 30.2727 21.0152 30.3986 20.9608C30.5244 20.9065 30.6378 20.8268 30.7315 20.7268C30.8253 20.6268 30.8975 20.5086 30.9437 20.3796C30.9899 20.2505 31.009 20.1133 30.9999 19.9765C30.9778 19.7189 30.8588 19.4793 30.667 19.306C30.4751 19.1327 30.2247 19.0386 29.9662 19.0428H27.9999C26.9391 19.0428 25.9217 19.4642 25.1715 20.2143C24.4214 20.9645 23.9999 21.9819 23.9999 23.0428V26.0428H20.9999C20.8629 26.0425 20.7272 26.0703 20.6013 26.1247C20.4755 26.179 20.3621 26.2587 20.2683 26.3587C20.1746 26.4587 20.1023 26.5769 20.0562 26.7059C20.01 26.835 19.9909 26.9722 19.9999 27.109C20.0221 27.3666 20.141 27.6062 20.3329 27.7795C20.5248 27.9528 20.7752 28.0469 21.0337 28.0428H23.9999V37.4528C24.0004 37.5233 23.9859 37.5932 23.9574 37.6577C23.9289 37.7223 23.887 37.78 23.8346 37.8273C23.7822 37.8745 23.7204 37.9101 23.6532 37.9317C23.5861 37.9533 23.5151 37.9605 23.4449 37.9528C20.2066 37.5584 17.2344 35.9626 15.1165 33.4813C12.9987 31 11.8895 27.8141 12.0087 24.554C12.2587 17.804 17.7262 12.3165 24.4812 12.054C26.2301 11.9863 27.9746 12.2719 29.6105 12.894C31.2464 13.516 32.7401 14.4616 34.0021 15.6741C35.2642 16.8867 36.2687 18.3414 36.9556 19.9511C37.6425 21.5608 37.9977 23.2926 37.9999 25.0428Z" fill="url(#paint0_linear_1_347)"/>
<rect x="1" y="1.04425" width="47.9999" height="47.9115" rx="23.9558" stroke="#0669AD" stroke-width="2"/>
<defs>
<linearGradient id="paint0_linear_1_347" x1="25" y1="12.0443" x2="25" y2="37.9558" gradientUnits="userSpaceOnUse">
<stop stop-color="#DB8D76"/>
<stop offset="1" stop-color="#0669AD"/>
</linearGradient>
</defs>
</svg>
