<svg width="51" height="52" viewBox="0 0 51 52" fill="none" xmlns="http://www.w3.org/2000/svg">
<path d="M39 22.5V23.5C38.9979 25.192 38.3837 26.8261 37.2707 28.1006C36.1578 29.375 34.6213 30.2038 32.945 30.4338C33.6292 31.3093 34.0006 32.3888 34 33.5V38.5C34 38.7652 33.8946 39.0196 33.7071 39.2071C33.5196 39.3947 33.2652 39.5 33 39.5H25C24.7348 39.5 24.4804 39.3947 24.2929 39.2071C24.1054 39.0196 24 38.7652 24 38.5V36.5H21C19.6739 36.5 18.4021 35.9732 17.4645 35.0356C16.5268 34.0979 16 32.8261 16 31.5C16 30.7044 15.6839 29.9413 15.1213 29.3787C14.5587 28.8161 13.7956 28.5 13 28.5C12.7348 28.5 12.4804 28.3947 12.2929 28.2071C12.1054 28.0196 12 27.7652 12 27.5C12 27.2348 12.1054 26.9804 12.2929 26.7929C12.4804 26.6054 12.7348 26.5 13 26.5C13.6566 26.5 14.3068 26.6293 14.9134 26.8806C15.52 27.1319 16.0712 27.5002 16.5355 27.9645C16.9998 28.4288 17.3681 28.98 17.6194 29.5866C17.8707 30.1932 18 30.8434 18 31.5C18 32.2957 18.3161 33.0587 18.8787 33.6213C19.4413 34.1839 20.2044 34.5 21 34.5H24V33.5C23.9994 32.3888 24.3708 31.3093 25.055 30.4338C23.3787 30.2038 21.8422 29.375 20.7293 28.1006C19.6163 26.8261 19.0021 25.192 19 23.5V22.5C19.0125 21.2572 19.3434 20.0384 19.9612 18.96C19.6556 17.974 19.5575 16.9354 19.6733 15.9096C19.789 14.8838 20.1161 13.8931 20.6337 13C20.7215 12.848 20.8478 12.7217 20.9999 12.6339C21.1519 12.5462 21.3244 12.5 21.5 12.5C22.6648 12.4976 23.814 12.7676 24.8558 13.2885C25.8976 13.8094 26.8031 14.5667 27.5 15.5H30.5C31.1969 14.5667 32.1024 13.8094 33.1442 13.2885C34.186 12.7676 35.3352 12.4976 36.5 12.5C36.6756 12.5 36.8481 12.5462 37.0001 12.6339C37.1522 12.7217 37.2785 12.848 37.3662 13C37.884 13.8931 38.211 14.8838 38.3265 15.9097C38.4421 16.9355 38.3437 17.9741 38.0375 18.96C38.6565 20.038 38.9879 21.257 39 22.5Z" fill="url(#paint0_linear_1_349)"/>
<rect x="1" y="1.5" width="49" height="49" rx="24.5" stroke="#0669AD" stroke-width="2"/>
<defs>
<linearGradient id="paint0_linear_1_349" x1="25.5" y1="12.5" x2="25.5" y2="39.5" gradientUnits="userSpaceOnUse">
<stop stop-color="#DB8D76"/>
<stop offset="1" stop-color="#0669AD"/>
</linearGradient>
</defs>
</svg>
