<svg width="50" height="50" viewBox="0 0 50 50" fill="none" xmlns="http://www.w3.org/2000/svg">
<path d="M36 12H14C13.4696 12 12.9609 12.2107 12.5858 12.5858C12.2107 12.9609 12 13.4696 12 14V36C12 36.5304 12.2107 37.0391 12.5858 37.4142C12.9609 37.7893 13.4696 38 14 38H36C36.5304 38 37.0391 37.7893 37.4142 37.4142C37.7893 37.0391 38 36.5304 38 36V14C38 13.4696 37.7893 12.9609 37.4142 12.5858C37.0391 12.2107 36.5304 12 36 12ZM21 31C21 31.2652 20.8946 31.5196 20.7071 31.7071C20.5196 31.8946 20.2652 32 20 32C19.7348 32 19.4804 31.8946 19.2929 31.7071C19.1054 31.5196 19 31.2652 19 31V23C19 22.7348 19.1054 22.4804 19.2929 22.2929C19.4804 22.1054 19.7348 22 20 22C20.2652 22 20.5196 22.1054 20.7071 22.2929C20.8946 22.4804 21 22.7348 21 23V31ZM20 21C19.7033 21 19.4133 20.912 19.1666 20.7472C18.92 20.5824 18.7277 20.3481 18.6142 20.074C18.5006 19.7999 18.4709 19.4983 18.5288 19.2074C18.5867 18.9164 18.7296 18.6491 18.9393 18.4393C19.1491 18.2296 19.4164 18.0867 19.7074 18.0288C19.9983 17.9709 20.2999 18.0006 20.574 18.1142C20.8481 18.2277 21.0824 18.42 21.2472 18.6666C21.412 18.9133 21.5 19.2033 21.5 19.5C21.5 19.8978 21.342 20.2794 21.0607 20.5607C20.7794 20.842 20.3978 21 20 21ZM32 31C32 31.2652 31.8946 31.5196 31.7071 31.7071C31.5196 31.8946 31.2652 32 31 32C30.7348 32 30.4804 31.8946 30.2929 31.7071C30.1054 31.5196 30 31.2652 30 31V26.5C30 25.837 29.7366 25.2011 29.2678 24.7322C28.7989 24.2634 28.163 24 27.5 24C26.837 24 26.2011 24.2634 25.7322 24.7322C25.2634 25.2011 25 25.837 25 26.5V31C25 31.2652 24.8946 31.5196 24.7071 31.7071C24.5196 31.8946 24.2652 32 24 32C23.7348 32 23.4804 31.8946 23.2929 31.7071C23.1054 31.5196 23 31.2652 23 31V23C23.0012 22.7551 23.0923 22.5191 23.256 22.3369C23.4197 22.1546 23.6446 22.0388 23.888 22.0114C24.1314 21.9839 24.3764 22.0468 24.5765 22.188C24.7767 22.3292 24.918 22.539 24.9738 22.7775C25.6502 22.3186 26.4389 22.0526 27.2552 22.0081C28.0714 21.9637 28.8844 22.1424 29.6067 22.5251C30.329 22.9078 30.9335 23.48 31.3551 24.1803C31.7768 24.8806 31.9997 25.6825 32 26.5V31Z" fill="url(#paint0_linear_1_343)"/>
<rect x="1" y="1" width="48" height="48" rx="24" stroke="#0669AD" stroke-width="2"/>
<defs>
<linearGradient id="paint0_linear_1_343" x1="25" y1="12" x2="25" y2="38" gradientUnits="userSpaceOnUse">
<stop stop-color="#DB8D76"/>
<stop offset="1" stop-color="#0669AD"/>
</linearGradient>
</defs>
</svg>
