<svg width="50" height="50" viewBox="0 0 50 50" fill="none" xmlns="http://www.w3.org/2000/svg">
<path d="M28.0725 27.1497L30.9475 28.5847C30.8112 29.2656 30.4429 29.8782 29.9054 30.3179C29.3679 30.7576 28.6945 30.9973 28 30.9959C25.6139 30.9933 23.3262 30.0442 21.639 28.357C19.9517 26.6697 19.0026 24.3821 19 21.9959C18.9998 21.3023 19.24 20.6301 19.6796 20.0936C20.1192 19.5571 20.7311 19.1895 21.4113 19.0534L22.8462 21.9284L21.625 23.7459C21.5337 23.8828 21.4777 24.0401 21.4617 24.2039C21.4458 24.3676 21.4706 24.5328 21.5337 24.6847C22.2492 26.3851 23.602 27.7379 25.3025 28.4534C25.4549 28.5194 25.6213 28.5464 25.7867 28.532C25.9521 28.5176 26.1113 28.4623 26.25 28.3709L28.0725 27.1497ZM38 24.9959C38.0005 27.2403 37.4199 29.4466 36.3147 31.4001C35.2095 33.3536 33.6174 34.9876 31.6934 36.1432C29.7693 37.2988 27.5788 37.9366 25.3352 37.9944C23.0915 38.0523 20.8711 37.5283 18.89 36.4734L14.6337 37.8922C14.2814 38.0097 13.9032 38.0267 13.5417 37.9414C13.1801 37.8561 12.8495 37.6718 12.5868 37.4091C12.3241 37.1464 12.1398 36.8158 12.0545 36.4543C11.9692 36.0927 11.9862 35.7146 12.1037 35.3622L13.5225 31.1059C12.5952 29.3625 12.0772 27.4307 12.008 25.4571C11.9387 23.4836 12.32 21.5203 13.1228 19.7161C13.9257 17.9119 15.129 16.3144 16.6414 15.0447C18.1538 13.775 19.9356 12.8665 21.8516 12.3883C23.7675 11.91 25.7672 11.8745 27.699 12.2845C29.6307 12.6945 31.4436 13.5391 33.0001 14.7544C34.5566 15.9696 35.8158 17.5235 36.6822 19.298C37.5485 21.0726 37.9992 23.0212 38 24.9959ZM33 27.9959C33.0001 27.8101 32.9485 27.628 32.8509 27.4699C32.7533 27.3118 32.6136 27.1841 32.4475 27.1009L28.4475 25.1009C28.29 25.0225 28.1147 24.9869 27.9391 24.9979C27.7635 25.0089 27.594 25.066 27.4475 25.1634L25.6112 26.3884C24.7683 25.925 24.0746 25.2314 23.6112 24.3884L24.8363 22.5522C24.9337 22.4057 24.9908 22.2361 25.0018 22.0606C25.0127 21.885 24.9772 21.7096 24.8988 21.5522L22.8988 17.5522C22.8159 17.3848 22.6877 17.2439 22.5289 17.1456C22.37 17.0473 22.1868 16.9954 22 16.9959C20.6739 16.9959 19.4021 17.5227 18.4645 18.4604C17.5268 19.3981 17 20.6698 17 21.9959C17.0033 24.9123 18.1633 27.7083 20.2255 29.7704C22.2877 31.8326 25.0836 32.9926 28 32.9959C28.6566 32.9959 29.3068 32.8666 29.9134 32.6153C30.52 32.364 31.0712 31.9957 31.5355 31.5315C31.9998 31.0672 32.3681 30.516 32.6194 29.9093C32.8707 29.3027 33 28.6525 33 27.9959Z" fill="url(#paint0_linear_1_345)"/>
<rect x="1" y="1.00125" width="48" height="47.9975" rx="23.9988" stroke="#0669AD" stroke-width="2"/>
<defs>
<linearGradient id="paint0_linear_1_345" x1="25" y1="12.0013" x2="25" y2="37.9988" gradientUnits="userSpaceOnUse">
<stop stop-color="#DB8D76"/>
<stop offset="1" stop-color="#0669AD"/>
</linearGradient>
</defs>
</svg>
